:SAMPLES-PER-SECOND 30
:FRAME-RANGE 1-1390
:FULLY-SPECIFIED
:DEGREES
174
root  41.129 32.25 -39.9924 -175.39 -69.0846 170.597
RightUpLeg  -82.5164 -17.6018 65.4425
RightLeg  123.505 8.68346 -11.3271
RightFoot  -17.3598 -0.201086 -1.59204
RightToes  6.35937e-011 1.2921e-014 -6.02303e-014
Spine  19.3677 0.418707 1.31086
Spine1  -2.18233 3.53059 -6.95258
HEad  12.4317 2.43664 2.24803
LeftShoulder1  2.77343 -8.3058 -17.503
LeftArm  29.6819 -27.6398 -67.2365
LeftForeArm  41.7339 1.15939 -17.5617
LeftHand  -0.020501 4.79041 -1.33812
RightShoulder  2.62582 7.65117 17.4837
RightArm  -8.01752 33.1018 73.2585
RightForeArm  83.3438 0.298455 7.63498
RightHand  0.576428 -13.4716 -8.97382
LeftUpLeg  -33.1861 -8.49513 -13.8725
LeftLeg  70.3408 6.39999 20.0671
LeftFoot  -29.5712 0.158965 -0.119287
LeftToes  4.52251e-011 4.07896e-011 -5.42348e-012
175
root  40.9503 32.292 -40.2004 -174.845 -69.8925 169.555
RightUpLeg  -83.4146 -17.5559 65.6816
RightLeg  123.289 8.14889 -10.6977
RightFoot  -18.2013 -0.181144 -0.968298
RightToes  6.35937e-011 1.2921e-014 -6.02303e-014
Spine  19.7873 -0.00104016 1.91142
Spine1  -2.47934 3.27403 -7.29414
HEad  13.106 2.42375 2.23506
LeftShoulder1  2.72093 -8.10602 -17.4579
LeftArm  29.3236 -27.9936 -67.4872
LeftForeArm  42.2297 1.38693 -17.5063
LeftHand  -0.0451643 6.85147 -0.560127
RightShoulder  2.56124 7.50629 17.1815
RightArm  -8.44488 32.0718 73.2943
RightForeArm  83.1959 2.54147 7.82598
RightHand  0.597328 -13.7327 -8.99253
LeftUpLeg  -32.0296 -7.87957 -14.0146
LeftLeg  70.0782 6.04213 18.8018
LeftFoot  -30.2525 0.218367 0.216547
LeftToes  4.52251e-011 4.07896e-011 -5.42348e-012
176
root  40.7102 32.4491 -40.3519 -173.949 -70.0728 168.501
RightUpLeg  -83.9006 -17.0516 65.5013
RightLeg  124.091 8.39181 -10.7029
RightFoot  -19.5022 -0.214516 -1.15779
RightToes  6.35937e-011 1.2921e-014 -6.02303e-014
Spine  19.4563 -0.0630434 2.90568
Spine1  -2.48072 3.45863 -7.59004
HEad  13.1344 2.56339 0.979256
LeftShoulder1  2.73314 -7.88475 -18.0878
LeftArm  32.0164 -27.7829 -67.6779
LeftForeArm  39.7829 0.766425 -17.6928
LeftHand  -0.0429882 6.76642 -0.461979
RightShoulder  2.47622 7.39963 16.571
RightArm  -8.45406 31.1575 72.7069
RightForeArm  81.9007 4.49753 8.33323
RightHand  0.590848 -13.7828 -8.85708
LeftUpLeg  -30.7012 -7.1472 -14.2237
LeftLeg  68.9754 6.05994 17.7643
LeftFoot  -31.0859 0.311623 0.713477
LeftToes  4.52251e-011 4.07896e-011 -5.42348e-012
177
root  40.4144 32.6332 -40.4865 -173.42 -70.3799 168.192
RightUpLeg  -84.5202 -16.8428 65.677
RightLeg  125.705 9.21716 -11.107
RightFoot  -19.9708 -0.24808 -1.4975
RightToes  6.35937e-011 1.2921e-014 -6.02303e-014
Spine  18.7751 -0.324022 4.4687
Spine1  -3.06299 3.44475 -8.2304
HEad  13.1413 3.27413 -0.00132167
LeftShoulder1  2.76889 -7.32896 -19.828
LeftArm  34.0795 -26.6798 -66.9833
LeftForeArm  37.4046 0.192768 -17.8443
LeftHand  -0.0422196 6.83027 -0.361495
RightShoulder  2.46749 7.37776 16.5333
RightArm  -8.45901 30.5451 71.8478
RightForeArm  81.3474 4.32692 8.55523
RightHand  0.58523 -13.606 -8.95715
LeftUpLeg  -29.6469 -7.27088 -14.1988
LeftLeg  67.9423 6.19604 17.1783
LeftFoot  -31.6811 0.415422 1.25013
LeftToes  4.52251e-011 4.07896e-011 -5.42348e-012
178
root  40.0601 32.7642 -40.6119 -172.003 -71.004 166.814
RightUpLeg  -85.0667 -16.7075 65.1879
RightLeg  127.905 10.0009 -11.1529
RightFoot  -20.1917 -0.324926 -2.43357
RightToes  6.35937e-011 1.2921e-014 -6.02303e-014
Spine  17.8767 -0.190466 5.56069
Spine1  -3.48526 3.65065 -8.16017
HEad  12.6687 3.08804 -0.444709
LeftShoulder1  2.89782 -7.14078 -21.6508
LeftArm  34.3357 -25.6743 -66.9416
LeftForeArm  36.8998 -0.0284567 -17.8797
LeftHand  -0.0435412 6.94952 -0.381069
RightShoulder  2.45837 7.26689 16.7025
RightArm  -8.95882 30.2184 70.5209
RightForeArm  80.7435 3.68154 8.49296
RightHand  0.552929 -13.4837 -8.63889
LeftUpLeg  -28.5052 -8.40509 -14.7392
LeftLeg  67.2622 6.49388 17.3176
LeftFoot  -31.9061 0.39531 1.11769
LeftToes  4.52251e-011 4.07896e-011 -5.42348e-012
179
root  39.6571 32.8396 -40.7699 -170.991 -71.4149 165.745
RightUpLeg  -84.7885 -16.6149 65.0253
RightLeg  129.634 10.9917 -11.5443
RightFoot  -20.7625 -0.410458 -3.27605
RightToes  6.35937e-011 1.2921e-014 -6.02303e-014
Spine  16.8585 0.0215569 7.41869
Spine1  -3.91781 4.15457 -9.02604
HEad  12.1148 2.52192 -0.377051
LeftShoulder1  2.94783 -6.82105 -23.1051
LeftArm  34.098 -24.5731 -66.855
LeftForeArm  37.2313 -0.126091 -17.8718
LeftHand  -0.0433136 7.74183 -0.0482529
RightShoulder  2.50331 7.40461 16.8357
RightArm  -9.11773 30.1293 70.1434
RightForeArm  82.6294 1.84839 8.20491
RightHand  0.578649 -13.8199 -8.66031
LeftUpLeg  -27.2506 -8.94526 -15.164
LeftLeg  66.7855 6.66358 17.3154
LeftFoot  -32.5741 0.394066 1.05309
LeftToes  4.52251e-011 4.07896e-011 -5.42348e-012
180
root  39.3234 32.9129 -41.0361 -170.704 -72.4442 165.056
RightUpLeg  -84.6222 -17.145 65.6491
RightLeg  130.363 11.3077 -11.5783
RightFoot  -20.915 -0.342928 -2.4052
RightToes  6.35937e-011 1.2921e-014 -6.02303e-014
Spine  16.0477 0.364602 9.49702
Spine1  -4.33631 4.65917 -9.75238
HEad  12.164 1.46942 -0.596683
LeftShoulder1  3.04891 -6.72174 -24.4717
LeftArm  37.5996 -23.2527 -66.2146
LeftForeArm  33.9841 -1.22612 -18.024
LeftHand  -0.0405611 6.94826 -0.179775
RightShoulder  2.50909 7.37964 16.9541
RightArm  -10.3718 29.4503 70.1072
RightForeArm  84.9392 0.650473 7.42854
RightHand  0.563183 -14.1233 -8.18558
LeftUpLeg  -25.726 -10.0775 -15.178
LeftLeg  66.5879 6.67051 17.1667
LeftFoot  -33.0479 0.286016 0.450844
LeftToes  4.52251e-011 4.07896e-011 -5.42348e-012
181
root  39.0419 33.0024 -41.26 -169.601 -71.5856 163.79
RightUpLeg  -85.3805 -17.8629 66.4749
RightLeg  131.672 10.6276 -10.381
RightFoot  -22.3515 -0.241249 -0.93333
RightToes  6.35937e-011 1.2921e-014 -6.02303e-014
Spine  15.2351 1.2279 12.2004
Spine1  -4.75781 5.94131 -11.9241
HEad  12.0143 0.62288 -0.999069
LeftShoulder1  3.12908 -6.44991 -26.2166
LeftArm  44.9149 -21.5975 -66.0718
LeftForeArm  28.9963 -3.19738 -18.0825
LeftHand  -0.0372538 7.05754 0.0799272
RightShoulder  2.46852 7.44399 16.3887
RightArm  -11.2781 29.3671 70.293
RightForeArm  91.1073 -3.83733 6.08778
RightHand  0.642263 -15.0458 -8.37594
LeftUpLeg  -24.7075 -10.7545 -15.6834
LeftLeg  66.2043 7.1005 17.8251
LeftFoot  -33.1496 0.0935016 -0.553715
LeftToes  4.52251e-011 4.07896e-011 -5.42348e-012
182
root  38.7858 33.078 -41.5244 -170.269 -70.0676 163.674
RightUpLeg  -83.9048 -18.7433 66.1295
RightLeg  132.688 8.13107 -7.57998
RightFoot  -24.992 0.147524 2.64826
RightToes  6.35937e-011 1.2921e-014 -6.02303e-014
Spine  14.6047 1.826 14.0162
Spine1  -4.84291 6.71007 -13.1187
HEad  12.4235 0.833167 -1.41749
LeftShoulder1  3.06409 -5.91045 -27.4314
LeftArm  45.953 -21.9742 -66.1613
LeftForeArm  30.1499 -3.79472 -17.9517
LeftHand  -0.0443226 7.30813 -0.247797
RightShoulder  2.52489 7.74814 16.2582
RightArm  -13.2353 28.7705 69.5279
RightForeArm  90.8285 -4.68022 5.14102
RightHand  0.644039 -14.2916 -9.05282
LeftUpLeg  -23.1064 -10.0586 -15.9177
LeftLeg  65.81 7.45874 18.2864
LeftFoot  -33.5183 -0.104003 -1.56355
LeftToes  4.52251e-011 4.07896e-011 -5.42348e-012
183
root  38.5433 33.209 -41.8351 -169.646 -68.4745 162.398
RightUpLeg  -81.3187 -18.828 63.7839
RightLeg  133.491 3.78128 -3.14465
RightFoot  -28.676 0.778397 6.38083
RightToes  6.35937e-011 1.2921e-014 -6.02303e-014
Spine  13.9604 2.10725 14.4945
Spine1  -5.37201 6.80986 -13.2914
HEad  13.1855 2.04762 -2.84442
LeftShoulder1  3.06546 -5.64914 -28.4461
LeftArm  40.748 -21.7435 -65.4271
LeftForeArm  35.0646 -2.65027 -17.9054
LeftHand  -0.0615137 7.97835 -0.426341
RightShoulder  2.5449 7.52877 16.9635
RightArm  -13.4375 29.1183 69.6056
RightForeArm  90.8607 -4.66252 5.04211
RightHand  0.599825 -13.9055 -8.85628
LeftUpLeg  -21.54 -8.8152 -16.3955
LeftLeg  64.8861 7.83841 18.3294
LeftFoot  -33.7279 -0.255398 -2.31998
LeftToes  4.52251e-011 4.07896e-011 -5.42348e-012
184
root  38.1196 33.315 -41.9607 -165.885 -67.1478 157.293
RightUpLeg  -79.846 -17.7843 60.6712
RightLeg  135.879 2.07146 -1.32039
RightFoot  -32.8487 1.17999 7.38522
RightToes  6.35937e-011 1.2921e-014 -6.02303e-014
Spine  13.5511 1.43307 12.6619
Spine1  -6.4031 6.02699 -12.6223
HEad  12.6579 3.25559 -3.31276
LeftShoulder1  3.13642 -6.1197 -27.4621
LeftArm  46.8889 -20.1971 -64.5422
LeftForeArm  26.7884 -4.52662 -17.9536
LeftHand  -0.059748 7.83714 -0.264911
RightShoulder  2.5928 7.51912 17.4688
RightArm  -12.2069 30.3456 72.0687
RightForeArm  94.835 -4.48032 5.05211
RightHand  0.727086 -14.9079 -9.47804
LeftUpLeg  -19.026 -6.30196 -18.6528
LeftLeg  63.0205 7.90934 17.0388
LeftFoot  -34.1484 -0.138184 -1.70811
LeftToes  4.52251e-011 4.07896e-011 -5.42348e-012
185
root  37.95 33.6556 -42.4071 -163.947 -67.2662 154.113
RightUpLeg  -79.7333 -16.3962 59.4768
RightLeg  136.872 2.23258 -1.40319
RightFoot  -33.9603 1.92782 10.7745
RightToes  6.35937e-011 1.2921e-014 -6.02303e-014
Spine  13.5828 0.397723 9.72347
Spine1  -7.58216 4.63373 -10.569
HEad  12.6922 3.51279 -2.53037
LeftShoulder1  3.08063 -6.5442 -25.3834
LeftArm  53.8551 -18.3689 -64.2295
LeftForeArm  17.1242 -6.53454 -17.8406
LeftHand  -0.0504482 7.40661 -0.0348228
RightShoulder  2.62485 7.23156 18.507
RightArm  -11.0665 31.5427 73.8378
RightForeArm  94.7954 -4.51545 5.25506
RightHand  0.730971 -14.8446 -9.58269
LeftUpLeg  -16.3275 -1.6036 -17.9638
LeftLeg  60.2487 6.26705 12.2868
LeftFoot  -34.1544 0.275249 0.340999
LeftToes  4.52251e-011 4.07896e-011 -5.42348e-012
186
root  37.9757 34.357 -43.1679 -163.607 -68.631 153.421
RightUpLeg  -81.5363 -14.1376 59.9487
RightLeg  136.482 4.97456 -3.84755
RightFoot  -30.8005 2.15049 13.7127
RightToes  6.35937e-011 1.2921e-014 -6.02303e-014
Spine  13.071 -0.474673 7.65423
Spine1  -7.7025 3.72015 -9.05188
HEad  12.148 2.23583 -1.38781
LeftShoulder1  3.16957 -7.61487 -23.0146
LeftArm  47.282 -18.1576 -64.7214
LeftForeArm  21.8316 -4.51753 -18.1582
LeftHand  -0.0541297 7.62031 -0.000420864
RightShoulder  2.44295 6.75531 17.8189
RightArm  -8.77981 32.2924 76.1735
RightForeArm  94.4728 -4.66382 6.07207
RightHand  0.767115 -14.9876 -9.86763
LeftUpLeg  -13.6591 3.31594 -14.4483
LeftLeg  56.1914 3.33786 5.89508
LeftFoot  -32.8438 0.731173 2.80497
LeftToes  4.52251e-011 4.07896e-011 -5.42348e-012
187
root  38.2759 35.4741 -44.2505 -161.948 -71.9906 152.587
RightUpLeg  -85.7854 -11.8099 61.1529
RightLeg  134.561 9.75716 -8.57933
RightFoot  -24.3279 1.04076 10.5725
RightToes  6.35937e-011 1.2921e-014 -6.02303e-014
Spine  12.435 -1.84921 4.83358
Spine1  -8.22472 2.23344 -7.00315
HEad  11.8287 0.654458 -0.290805
LeftShoulder1  3.16737 -8.46101 -20.7721
LeftArm  36.1611 -18.827 -65.203
LeftForeArm  31.2133 -1.30528 -18.1353
LeftHand  -0.036484 7.07413 0.133435
RightShoulder  2.37529 6.41286 17.9881
RightArm  -6.37737 33.1921 76.9626
RightForeArm  93.43 -4.89308 7.1897
RightHand  0.706318 -15.0074 -9.14692
LeftUpLeg  -11.4214 4.12299 -10.1975
LeftLeg  50.2532 0.482497 1.09814
LeftFoot  -29.1581 0.734407 3.56268
LeftToes  4.52251e-011 4.07896e-011 -5.42348e-012
188
root  38.7635 36.9027 -45.5052 -163.749 -75.3409 155.716
RightUpLeg  -88.1516 -10.1878 62.1097
RightLeg  131.667 12.3351 -12.0749
RightFoot  -18.9808 0.160008 4.32175
RightToes  6.35937e-011 1.2921e-014 -6.02303e-014
Spine  12.3252 -2.51654 3.22761
Spine1  -8.54628 1.44093 -5.63839
HEad  12.7657 -0.991069 0.045825
LeftShoulder1  3.13545 -9.14354 -18.909
LeftArm  39.5749 -18.9814 -66.4612
LeftForeArm  27.8929 -2.21495 -18.2275
LeftHand  -0.0273773 7.48334 0.69229
RightShoulder  2.293 6.13473 17.8195
RightArm  -5.56978 32.9998 77.0854
RightForeArm  92.8319 -4.99265 7.63725
RightHand  0.759483 -15.1965 -9.58485
LeftUpLeg  -9.5451 0.344994 -5.91207
LeftLeg  42.8234 -0.0278468 0.393833
LeftFoot  -23.125 0.19984 0.59077
LeftToes  4.52251e-011 4.07896e-011 -5.42348e-012
